Hanif_Deep_2_5_grf.mot
version=1
nRows=47
nColumns=19
inDegrees=yes
endheader
time	right_ground_force_vx	right_ground_force_vy	right_ground_force_vz	right_ground_force_px	right_ground_force_py	right_ground_force_pz	right_ground_torque_x	right_ground_torque_y	right_ground_torque_z	left_ground_force_vx	left_ground_force_vy	left_ground_force_vz	left_ground_force_px	left_ground_force_py	left_ground_force_pz	left_ground_torque_x	left_ground_torque_y	left_ground_torque_z
1.670000	0.005235	212.614000	50.514400	0.226897	0.000000	-1.421220	-18.024500	0.902872	6.255950	-2.631480	197.210000	-42.850300	0.233679	0.000000	-0.975173	14.288900	-2.544750	7.549510
1.675000	0.732462	210.711000	50.295000	0.227581	0.000000	-1.421710	-17.753100	0.805836	6.320430	-2.840730	194.594000	-42.244300	0.235270	0.000000	-0.974409	13.957400	-2.527150	7.779480
1.680000	0.555447	209.906000	49.564300	0.227884	0.000000	-1.421740	-17.681900	0.700207	6.333540	-3.045710	193.581000	-42.155000	0.235660	0.000000	-0.974657	13.938200	-2.523880	7.827660
1.685000	-0.017856	205.437000	49.075900	0.229276	0.000000	-1.421080	-17.446500	0.552348	6.489930	-3.423670	190.437000	-41.994700	0.235136	0.000000	-0.975298	13.841400	-2.347000	7.588740
1.690000	-0.559917	204.412000	49.145600	0.229883	0.000000	-1.420950	-17.391300	0.432781	6.577040	-3.096960	189.504000	-42.127200	0.236147	0.000000	-0.975662	13.836300	-2.323710	7.755080
1.695000	-0.592805	201.003000	48.608000	0.229797	0.000000	-1.419740	-17.343400	0.418501	6.453190	-3.418650	185.779000	-41.855700	0.236589	0.000000	-0.976302	13.690100	-2.137660	7.680570
1.700000	-0.602031	201.298000	48.496800	0.230966	0.000000	-1.420360	-17.244000	0.232433	6.663600	-3.475320	186.081000	-41.670900	0.236623	0.000000	-0.975660	13.592400	-2.057800	7.674040
1.705000	-1.282470	198.440000	48.157700	0.232134	0.000000	-1.420450	-16.987700	0.178898	6.822190	-2.868110	183.959000	-41.730600	0.236615	0.000000	-0.976812	13.637100	-2.020270	7.588550
1.710000	-1.530830	198.667000	48.245400	0.231975	0.000000	-1.420610	-16.976900	0.072668	6.776370	-2.994340	183.687000	-42.255800	0.238070	0.000000	-0.975791	13.431700	-1.911870	7.852880
1.715000	-1.227910	196.592000	47.664800	0.232104	0.000000	-1.420050	-16.907400	-0.010983	6.705330	-3.234300	182.041000	-41.626300	0.238207	0.000000	-0.976467	13.438500	-1.796880	7.784030
1.720000	-1.314120	194.067000	48.134900	0.231700	0.000000	-1.419620	-16.774200	-0.064052	6.542580	-3.188620	179.099000	-41.844500	0.238398	0.000000	-0.975231	12.998500	-1.649020	7.691520
1.725000	-1.108450	190.522000	47.673600	0.231725	0.000000	-1.421760	-16.057800	-0.180217	6.400970	-3.669090	176.668000	-40.934900	0.239489	0.000000	-0.976069	12.982000	-1.628770	7.790560
1.730000	-1.081520	187.907000	47.352600	0.231854	0.000000	-1.420970	-15.986500	-0.215322	6.334630	-3.433370	172.951000	-40.091200	0.238910	0.000000	-0.975634	12.628600	-1.538700	7.505590
1.735000	-0.271896	184.320000	46.752200	0.231332	0.000000	-1.422540	-15.384400	-0.304303	6.075170	-3.667330	167.917000	-40.167300	0.240651	0.000000	-0.975287	12.212200	-1.484500	7.635050
1.740000	-0.139808	179.028000	46.381900	0.230553	0.000000	-1.419610	-15.467700	-0.345728	5.750580	-3.924750	165.009000	-38.999900	0.239469	0.000000	-0.977587	12.385000	-1.425470	7.282680
1.745000	-0.396088	176.367000	46.179800	0.231849	0.000000	-1.422020	-14.813400	-0.456496	5.891420	-3.665110	161.601000	-37.988000	0.240630	0.000000	-0.975047	11.712900	-1.276580	7.290860
1.750000	-1.057590	173.945000	45.467000	0.231427	0.000000	-1.423020	-14.439200	-0.583640	5.710480	-4.843580	156.291000	-37.327000	0.241129	0.000000	-0.978265	11.858300	-1.168910	7.160910
1.755000	-0.885945	167.922000	44.613800	0.232284	0.000000	-1.421360	-14.217400	-0.668935	5.646150	-4.872930	155.038000	-35.727400	0.240040	0.000000	-0.975929	11.398300	-1.126610	6.878820
1.760000	-1.720220	165.446000	43.760200	0.231844	0.000000	-1.421800	-13.938700	-0.764231	5.473200	-5.584360	152.670000	-34.879400	0.240074	0.000000	-0.974381	10.998300	-0.954284	6.746440
1.765000	-2.208480	162.755000	43.038100	0.233759	0.000000	-1.420760	-13.882500	-0.961808	5.674160	-5.594530	146.656000	-34.707300	0.239845	0.000000	-0.978638	11.200100	-1.009430	6.509780
1.770000	-3.475940	159.164000	42.180300	0.233960	0.000000	-1.420710	-13.590300	-1.033350	5.589460	-6.382890	145.933000	-34.253600	0.240288	0.000000	-0.974001	10.480900	-0.899357	6.520690
1.775000	-4.090210	158.448000	41.073500	0.235188	0.000000	-1.422720	-13.208500	-1.280250	5.706630	-6.279560	145.770000	-33.425000	0.239496	0.000000	-0.972866	10.295000	-0.810631	6.346520
1.780000	-4.816830	155.135000	40.332700	0.235320	0.000000	-1.420000	-13.357000	-1.326410	5.612570	-6.798200	142.834000	-33.094100	0.239191	0.000000	-0.974178	10.285400	-0.713126	6.175710
1.785000	-4.921130	153.651000	39.175700	0.236079	0.000000	-1.420890	-13.087400	-1.505080	5.627060	-6.887770	143.521000	-32.911200	0.238918	0.000000	-0.973700	10.264500	-0.680932	6.147080
1.790000	-5.814270	151.917000	37.783000	0.235134	0.000000	-1.418390	-13.316200	-1.642730	5.385680	-7.374880	144.343000	-33.101300	0.238249	0.000000	-0.975143	10.537000	-0.624370	6.076540
1.795000	-6.232780	151.692000	37.635500	0.235644	0.000000	-1.419430	-13.132900	-1.868540	5.409990	-6.978130	145.602000	-33.089900	0.236674	0.000000	-0.974480	10.516300	-0.555910	5.855380
1.800000	-6.315670	151.257000	36.972500	0.236088	0.000000	-1.421580	-12.766400	-1.935060	5.442010	-6.918380	145.696000	-33.058700	0.236589	0.000000	-0.973073	10.311500	-0.456426	5.818940
1.805000	-6.493020	152.620000	37.052400	0.235492	0.000000	-1.419410	-13.211300	-1.956970	5.397440	-6.602900	145.854000	-33.335100	0.234780	0.000000	-0.973498	10.377500	-0.478436	5.553510
1.810000	-6.855530	152.079000	36.643600	0.235890	0.000000	-1.419640	-13.123700	-2.132280	5.403860	-5.970140	148.061000	-33.296800	0.235442	0.000000	-0.972910	10.433500	-0.449066	5.707830
1.815000	-6.592710	152.276000	36.796600	0.235488	0.000000	-1.420450	-13.016100	-2.137900	5.339230	-5.195050	149.114000	-33.288500	0.236007	0.000000	-0.973250	10.544500	-0.425992	5.813260
1.820000	-7.305470	154.024000	35.955800	0.235302	0.000000	-1.420650	-13.125500	-2.340200	5.332870	-5.076610	149.418000	-34.066300	0.234591	0.000000	-0.972968	10.519600	-0.383835	5.605640
1.825000	-7.188070	153.471000	35.870800	0.236703	0.000000	-1.420390	-13.115800	-2.418380	5.519160	-5.172860	150.285000	-33.908100	0.234623	0.000000	-0.972959	10.581200	-0.424546	5.645610
1.830000	-7.578710	152.607000	35.922800	0.235495	0.000000	-1.423030	-12.633800	-2.480680	5.281110	-4.594230	151.020000	-34.053400	0.231903	0.000000	-0.972082	10.487400	-0.394516	5.223580
1.835000	-7.352150	150.595000	35.226200	0.236204	0.000000	-1.421080	-12.756400	-2.544050	5.301420	-4.678880	153.670000	-34.556600	0.231026	0.000000	-0.970901	10.490600	-0.458452	5.183320
1.840000	-7.679400	152.378000	35.599300	0.234605	0.000000	-1.422620	-12.671400	-2.551610	5.114290	-4.043170	154.831000	-34.884400	0.230964	0.000000	-0.970749	10.536500	-0.443566	5.199170
1.845000	-7.445310	154.161000	35.176300	0.234937	0.000000	-1.422940	-12.766100	-2.649760	5.202850	-4.254970	157.622000	-34.748200	0.230641	0.000000	-0.969349	10.506500	-0.446373	5.225030
1.850000	-7.807690	155.937000	35.319500	0.233647	0.000000	-1.422860	-12.924200	-2.630060	5.067270	-4.366250	158.036000	-34.084900	0.228411	0.000000	-0.970683	10.745700	-0.523203	4.875420
1.855000	-7.859510	153.433000	34.639800	0.235068	0.000000	-1.422680	-12.742700	-2.684840	5.196470	-5.272120	159.605000	-34.049000	0.227917	0.000000	-0.969453	10.667000	-0.541243	4.848620
1.860000	-8.327150	154.828000	33.721300	0.232583	0.000000	-1.424060	-12.630300	-2.828630	4.816580	-5.209600	162.579000	-33.382100	0.227009	0.000000	-0.968706	10.739700	-0.543907	4.758200
1.865000	-8.428090	157.059000	32.826000	0.233388	0.000000	-1.424330	-12.776400	-2.720200	5.048230	-5.517460	165.957000	-32.778300	0.227767	0.000000	-0.968476	10.927000	-0.558208	4.969470
1.870000	-9.023670	158.971000	31.959400	0.234622	0.000000	-1.425170	-12.789700	-2.884180	5.293130	-6.232710	166.411000	-32.629100	0.228104	0.000000	-0.969147	11.079100	-0.581662	5.051510
1.875000	-9.948310	161.595000	31.960200	0.233681	0.000000	-1.424070	-13.182300	-2.833050	5.256390	-7.323570	169.076000	-31.508300	0.227007	0.000000	-0.968402	11.144200	-0.663401	4.937630
1.880000	-9.858010	165.448000	31.361500	0.233122	0.000000	-1.424440	-13.434600	-2.838490	5.291220	-7.432470	170.686000	-31.668900	0.226325	0.000000	-0.968234	11.214800	-0.526188	4.835630
1.885000	-10.491500	170.273000	31.248800	0.232226	0.000000	-1.422600	-14.140500	-2.857720	5.308060	-8.126360	176.966000	-32.192500	0.225796	0.000000	-0.968737	11.726000	-0.657381	4.932930
1.890000	-10.582500	175.634000	31.463500	0.233208	0.000000	-1.422970	-14.528300	-2.833700	5.669430	-7.353020	181.817000	-33.305300	0.225677	0.000000	-0.967186	11.749100	-0.625280	5.026090
1.895000	-11.152800	181.030000	32.109400	0.232160	0.000000	-1.424110	-14.772500	-2.783530	5.673260	-6.972330	187.843000	-34.899900	0.225376	0.000000	-0.967968	12.277200	-0.635677	5.133440
1.900000	-10.925300	186.978000	32.813100	0.232125	0.000000	-1.424960	-15.101900	-2.797380	5.856140	-6.755250	193.375000	-35.671900	0.224723	0.000000	-0.967679	12.575700	-0.638662	5.141830
